<!DOCTYPE svg PUBLIC "-//W3C//DTD SVG 1.1//EN" "http://www.w3.org/Graphics/SVG/1.1/DTD/svg11.dtd">
<!-- Uploaded to: SVG Repo, www.svgrepo.com, Transformed by: SVG Repo Mixer Tools -->
<svg width="800px" height="800px" viewBox="0 0 1024 1024" xmlns="http://www.w3.org/2000/svg" fill="#cf173c" stroke="#cf173c" stroke-width="11.264">
<g id="SVGRepo_bgCarrier" stroke-width="0"/>
<g id="SVGRepo_tracerCarrier" stroke-linecap="round" stroke-linejoin="round"/>
<g id="SVGRepo_iconCarrier">
<path fill="#cf173c" d="M512 896a384 384 0 1 0 0-768 384 384 0 0 0 0 768zm0 64a448 448 0 1 1 0-896 448 448 0 0 1 0 896z"/>
<path fill="#cf173c" d="M192 512a320 320 0 1 1 640 0 32 32 0 1 1-64 0 256 256 0 1 0-512 0 32 32 0 0 1-64 0z"/>
<path fill="#cf173c" d="M570.432 627.84A96 96 0 1 1 509.568 608l60.992-187.776A32 32 0 1 1 631.424 440l-60.992 187.776zM502.08 734.464a32 32 0 1 0 19.84-60.928 32 32 0 0 0-19.84 60.928z"/>
</g>
</svg>