<?xml version="1.0" standalone="no"?>
<!DOCTYPE svg PUBLIC "-//W3C//DTD SVG 20010904//EN"
 "http://www.w3.org/TR/2001/REC-SVG-20010904/DTD/svg10.dtd">
<svg version="1.0" xmlns="http://www.w3.org/2000/svg"
 width="591.000000pt" height="213.000000pt" viewBox="0 0 591.000000 213.000000"
 preserveAspectRatio="xMidYMid meet">

<g transform="translate(0.000000,213.000000) scale(0.100000,-0.100000)"
fill="#000000" stroke="none">
<path d="M2980 1690 c-185 -21 -312 -58 -495 -147 -123 -59 -208 -106 -257
-142 -23 -17 -47 -31 -52 -32 -6 0 -31 -16 -56 -34 -130 -97 -225 -125 -505
-146 -71 -5 -175 -16 -230 -24 -55 -7 -127 -16 -160 -20 -231 -23 -537 -82
-679 -132 -90 -31 -118 -52 -146 -110 -13 -26 -29 -59 -36 -73 -16 -32 -35
-206 -36 -325 -1 -108 15 -148 64 -164 45 -14 134 -28 248 -41 118 -12 120
-11 108 92 -5 40 -6 96 -3 123 7 62 43 171 61 186 8 6 14 17 14 23 0 16 106
117 155 147 66 42 135 59 234 59 152 0 274 -61 366 -182 75 -100 89 -146 95
-318 l5 -145 1204 -3 c835 -1 1208 1 1217 8 9 8 11 35 7 104 -8 130 30 283 81
325 9 8 16 19 16 25 0 18 90 100 140 128 85 46 140 61 231 62 89 0 118 -7 224
-61 70 -35 148 -120 192 -211 36 -73 38 -80 40 -190 2 -62 5 -118 9 -124 12
-18 237 19 349 58 23 8 49 14 59 14 20 0 61 16 153 61 52 26 65 37 84 77 20
44 21 52 10 127 -8 54 -24 102 -47 147 -19 37 -39 90 -45 118 -6 28 -17 64
-25 78 -8 15 -14 32 -14 39 0 17 -38 91 -66 129 -27 37 -73 52 -197 64 -120
11 -264 37 -302 55 -16 7 -42 17 -58 20 -15 4 -29 11 -32 15 -3 5 -31 20 -63
35 -31 14 -64 30 -72 35 -8 6 -26 15 -40 21 -14 5 -70 32 -125 59 -55 27 -129
60 -165 75 -36 14 -74 30 -85 35 -11 5 -38 14 -60 19 -22 6 -65 17 -95 24
-144 37 -175 39 -660 42 -267 2 -519 0 -560 -5z m308 -98 c2 -18 -3 -56 -11
-85 -8 -28 -18 -74 -21 -102 -11 -87 -27 -143 -45 -160 -15 -12 -56 -18 -192
-25 -96 -5 -192 -12 -214 -15 -22 -3 -157 -12 -300 -20 -143 -9 -281 -18 -307
-22 -46 -5 -48 -5 -48 20 0 18 12 34 43 56 23 16 51 37 62 46 70 55 274 180
370 227 22 11 48 24 57 28 88 47 335 89 503 87 l100 -2 3 -33z m647 23 c88 -8
171 -18 185 -21 74 -21 251 -132 349 -221 63 -58 63 -58 45 -80 -19 -21 -26
-21 -542 -33 -400 -8 -527 -8 -538 1 -11 9 -14 44 -14 159 0 81 3 162 6 179
l7 31 171 0 c94 0 243 -7 331 -15z"/>
<path d="M1134 819 c-100 -18 -188 -85 -245 -187 -29 -51 -31 -63 -32 -156 -2
-90 1 -107 25 -156 39 -82 101 -143 178 -175 59 -25 73 -27 165 -23 84 4 108
9 147 30 62 34 87 55 118 98 52 71 65 117 65 225 0 90 -3 105 -28 153 -34 65
-97 130 -155 160 -39 20 -64 26 -167 36 -16 1 -49 -1 -71 -5z"/>
<path d="M4402 785 c-128 -64 -192 -172 -192 -321 0 -70 4 -89 31 -145 39 -79
68 -111 139 -154 114 -69 270 -68 375 4 65 44 134 128 146 179 26 106 27 124
10 196 -27 109 -78 181 -166 234 -57 34 -66 36 -165 40 -104 4 -105 3 -178
-33z"/>
</g>
</svg>
