<?xml version="1.0" standalone="no"?>
<!DOCTYPE svg PUBLIC "-//W3C//DTD SVG 20010904//EN"
 "http://www.w3.org/TR/2001/REC-SVG-20010904/DTD/svg10.dtd">
<svg version="1.0" xmlns="http://www.w3.org/2000/svg"
 width="500.000000pt" height="193.000000pt" viewBox="0 0 500.000000 193.000000"
 preserveAspectRatio="xMidYMid meet">

<g transform="translate(0.000000,193.000000) scale(0.100000,-0.100000)"
fill="#000000" stroke="none">
<path d="M2945 1656 c-274 -18 -437 -48 -562 -102 -17 -8 -35 -14 -40 -14 -14
0 -290 -141 -348 -178 -27 -17 -61 -37 -75 -43 -14 -5 -41 -22 -60 -37 -47
-36 -141 -87 -245 -132 -36 -16 -149 -41 -245 -55 -157 -23 -281 -44 -303 -51
-12 -4 -51 -13 -87 -20 -146 -28 -287 -72 -378 -116 -94 -46 -130 -72 -178
-128 -60 -71 -87 -185 -82 -354 3 -141 4 -142 100 -174 59 -20 83 -22 219 -20
l154 3 -4 121 c-3 106 0 129 20 190 41 123 92 191 192 257 97 64 230 91 336
67 227 -51 387 -270 366 -500 -3 -41 -7 -88 -8 -105 l-2 -30 996 -3 997 -2 -2
142 c-1 130 1 149 24 208 31 83 59 124 121 178 125 111 270 146 419 103 86
-24 136 -51 186 -98 110 -103 153 -203 154 -360 0 -39 4 -74 9 -77 12 -8 131
19 167 37 57 29 65 48 74 162 5 58 12 126 16 151 6 40 3 49 -32 101 l-39 56 3
122 c2 112 0 127 -23 179 -55 124 -207 308 -350 421 -27 22 -52 42 -55 45 -30
32 -66 39 -241 50 -293 17 -965 20 -1194 6z m1002 -98 c45 -30 88 -99 122
-196 33 -96 26 -172 -19 -200 -13 -8 -145 -15 -407 -22 -213 -5 -416 -12 -450
-14 -49 -4 -66 -1 -84 12 -20 17 -21 22 -10 87 5 39 15 131 21 205 8 108 14
138 28 148 13 10 94 12 388 10 l371 -3 40 -27z m-951 7 c7 -16 -10 -119 -31
-200 -8 -27 -18 -70 -24 -95 -24 -111 -37 -145 -62 -157 -15 -8 -71 -13 -144
-14 -66 0 -158 -4 -205 -9 -165 -15 -546 -44 -590 -44 -40 -1 -45 2 -48 22 -3
18 10 36 50 73 76 71 255 211 313 244 28 16 52 32 55 35 3 3 16 11 30 18 14 7
43 23 66 36 61 35 175 66 319 85 172 24 264 26 271 6z"/>
<path d="M1193 761 c-105 -27 -188 -94 -240 -196 -23 -44 -26 -61 -25 -147 1
-84 5 -105 27 -149 35 -69 99 -130 169 -162 78 -36 200 -40 269 -8 25 12 50
21 54 21 9 0 56 43 94 87 103 118 100 314 -8 441 -24 28 -51 52 -59 52 -8 0
-14 4 -14 8 0 4 -21 18 -47 31 -52 25 -164 36 -220 22z"/>
<path d="M4090 764 c-61 -11 -152 -63 -192 -109 -90 -103 -111 -265 -52 -392
26 -54 108 -130 172 -160 47 -21 69 -25 145 -24 62 0 97 5 113 16 13 8 29 15
35 15 7 0 36 20 65 45 54 47 101 118 111 170 3 17 10 38 15 47 13 26 -10 144
-40 208 -52 108 -162 180 -282 186 -36 1 -76 0 -90 -2z"/>
</g>
</svg>
