<?xml version="1.0" standalone="no"?>
<!DOCTYPE svg PUBLIC "-//W3C//DTD SVG 20010904//EN"
 "http://www.w3.org/TR/2001/REC-SVG-20010904/DTD/svg10.dtd">
<svg version="1.0" xmlns="http://www.w3.org/2000/svg"
 width="563.000000pt" height="189.000000pt" viewBox="0 0 563.000000 189.000000"
 preserveAspectRatio="xMidYMid meet">

<g transform="translate(0.000000,189.000000) scale(0.100000,-0.100000)"
fill="#ffffffcc" stroke="none">
<path d="M2670 1505 c-19 -7 -53 -20 -75 -28 -22 -9 -68 -29 -103 -46 -34 -17
-66 -31 -71 -31 -4 0 -106 -50 -226 -111 l-218 -111 -96 -8 c-53 -5 -154 -14
-226 -20 -71 -6 -168 -15 -215 -21 -47 -6 -137 -17 -200 -24 -234 -28 -365
-51 -495 -87 -22 -6 -65 -16 -95 -23 -192 -45 -338 -106 -458 -190 -1 -1 -9
-29 -18 -61 -22 -82 -14 -191 20 -271 29 -70 32 -106 11 -143 -21 -37 -18 -49
13 -56 15 -3 47 -12 72 -20 25 -7 88 -18 140 -24 52 -5 111 -12 131 -16 47 -7
52 6 37 104 -12 83 2 233 27 282 7 14 19 41 28 60 29 68 133 166 226 214 123
64 345 61 441 -6 13 -10 28 -18 33 -18 28 0 173 -152 197 -207 49 -111 57
-196 34 -379 l-6 -51 38 -6 c54 -8 2228 -7 2289 1 l50 7 -2 40 c-10 208 -8
270 15 319 12 27 22 54 22 60 0 22 87 131 136 172 91 74 143 97 264 114 107
14 285 -31 350 -90 9 -8 27 -25 41 -37 109 -96 169 -233 169 -386 0 -68 3 -89
15 -93 8 -3 47 1 87 10 40 8 96 20 123 25 66 12 161 32 206 43 91 21 149 140
149 307 0 50 -4 99 -9 109 -59 110 -91 208 -91 276 0 44 -4 53 -39 86 l-38 37
-189 7 c-104 3 -245 13 -314 22 -69 8 -234 17 -368 19 -133 2 -247 7 -252 10
-6 3 -10 19 -10 34 0 43 -20 63 -60 59 -33 -3 -36 -6 -55 -65 -22 -70 -33 -78
-125 -86 -30 -3 -93 -10 -140 -15 -47 -6 -148 -12 -225 -14 l-140 -3 0 63 c0
55 -3 66 -24 83 -54 44 -90 5 -116 -123 -3 -15 -14 -32 -25 -38 -11 -6 -178
-14 -407 -20 -213 -5 -445 -12 -515 -15 l-128 -5 0 25 c0 18 8 29 28 38 15 6
50 27 77 45 28 18 141 77 252 132 170 84 200 103 196 118 -3 12 -20 24 -42 31
-48 14 -57 13 -101 -4z"/>
<path d="M992 789 c-142 -45 -236 -141 -267 -271 -25 -108 -18 -186 28 -277
25 -49 131 -161 153 -161 8 0 25 -6 37 -14 36 -23 150 -36 220 -25 140 22 215
82 287 229 34 69 48 191 26 232 -8 15 -17 40 -21 57 -3 16 -13 35 -21 42 -8 6
-14 18 -14 26 0 15 -47 65 -101 106 -47 36 -167 77 -221 76 -24 0 -71 -9 -106
-20z"/>
<path d="M4385 803 c-151 -40 -232 -100 -287 -212 -29 -61 -32 -74 -32 -171
-1 -100 1 -109 32 -172 75 -152 238 -234 414 -207 232 36 374 275 297 502 -11
34 -25 64 -29 67 -5 3 -13 15 -17 26 -12 31 -122 122 -163 135 -19 6 -39 15
-45 19 -13 10 -144 20 -170 13z"/>
</g>
</svg>
