<?xml version="1.0" standalone="no"?>
<!DOCTYPE svg PUBLIC "-//W3C//DTD SVG 20010904//EN"
 "http://www.w3.org/TR/2001/REC-SVG-20010904/DTD/svg10.dtd">
<svg version="1.0" xmlns="http://www.w3.org/2000/svg"
 width="420.000000pt" height="202.000000pt" viewBox="0 0 420.000000 202.000000"
 preserveAspectRatio="xMidYMid meet">

<g transform="translate(0.000000,202.000000) scale(0.100000,-0.100000)"
fill="#ffffffcc" stroke="none">
<path d="M2385 1719 c-218 -8 -340 -29 -470 -84 -219 -92 -288 -130 -517 -282
-37 -25 -72 -51 -79 -59 -6 -8 -16 -14 -21 -14 -5 0 -26 -14 -47 -30 -43 -35
-160 -79 -209 -80 -35 0 -134 -22 -212 -47 -25 -8 -62 -19 -84 -24 -21 -5 -48
-16 -60 -24 -11 -8 -26 -15 -32 -15 -13 0 -98 -52 -156 -97 -119 -90 -201
-260 -202 -418 -1 -111 19 -154 88 -189 28 -14 62 -26 76 -26 14 0 42 -5 62
-10 63 -18 74 -5 81 93 12 165 94 291 235 359 57 27 81 33 160 36 78 4 101 1
155 -19 72 -27 150 -82 196 -140 50 -61 73 -131 80 -236 3 -50 10 -95 14 -100
13 -12 1684 -15 1708 -3 15 9 19 21 19 70 0 108 40 219 107 295 35 39 109 94
137 101 16 4 41 13 55 20 41 22 186 18 256 -6 105 -36 213 -140 250 -240 9
-25 21 -71 25 -103 9 -68 14 -75 34 -54 9 8 19 17 23 19 5 1 18 21 29 43 23
42 30 116 26 261 -2 64 -5 76 -36 115 -18 24 -36 55 -41 69 -18 62 -69 156
-108 198 -24 26 -68 79 -97 117 -145 186 -315 360 -413 425 -52 34 -69 39
-136 44 -42 4 -105 11 -141 16 -149 22 -450 30 -755 19z m223 -94 c17 -37 16
-365 -1 -389 -11 -15 -45 -18 -297 -26 -157 -5 -341 -14 -410 -20 -69 -6 -226
-15 -349 -20 -222 -10 -240 -8 -241 21 0 3 24 21 53 39 28 19 54 36 57 40 12
13 181 122 240 154 90 50 245 126 254 126 5 0 22 6 39 14 107 48 324 81 548
85 94 1 96 0 107 -24z m319 4 c86 -12 176 -39 238 -71 48 -26 134 -92 155
-120 8 -11 22 -28 31 -38 29 -31 62 -98 56 -114 -16 -40 -42 -44 -312 -48
l-259 -3 -13 25 c-7 14 -13 39 -13 55 0 17 -4 46 -10 65 -5 19 -14 80 -20 134
-9 89 -9 101 7 118 11 13 25 17 39 14 12 -3 58 -11 101 -17z"/>
<path d="M985 720 c-124 -17 -207 -77 -265 -190 -34 -65 -33 -192 3 -270 30
-66 93 -128 162 -161 69 -32 198 -32 267 0 69 32 142 108 169 178 27 71 30
182 5 228 -9 17 -16 36 -16 43 0 7 -29 41 -64 75 -50 50 -75 66 -122 80 -79
25 -82 25 -139 17z"/>
<path d="M3494 707 c-125 -45 -208 -138 -225 -252 -12 -77 0 -153 33 -211 25
-44 93 -124 106 -124 4 0 25 -10 47 -22 59 -32 201 -32 265 2 103 53 146 104
180 213 25 80 25 98 -2 181 -19 58 -33 80 -84 130 -47 48 -72 65 -115 78 -95
29 -138 30 -205 5z"/>
</g>
</svg>
