<?xml version="1.0" standalone="no"?>
<!DOCTYPE svg PUBLIC "-//W3C//DTD SVG 20010904//EN"
 "http://www.w3.org/TR/2001/REC-SVG-20010904/DTD/svg10.dtd">
<svg version="1.0" xmlns="http://www.w3.org/2000/svg"
 width="488.000000pt" height="178.000000pt" viewBox="0 0 488.000000 178.000000"
 preserveAspectRatio="xMidYMid meet">

<g transform="translate(0.000000,178.000000) scale(0.100000,-0.100000)"
fill="#000000" stroke="none">
<path d="M2585 1571 c-71 -3 -135 -9 -141 -13 -6 -4 -42 -14 -81 -22 -111 -23
-307 -107 -476 -205 -47 -27 -95 -52 -106 -56 -12 -3 -21 -11 -21 -16 0 -5 -8
-13 -17 -16 -10 -4 -44 -21 -75 -39 -31 -18 -71 -35 -90 -39 -18 -4 -38 -11
-44 -16 -15 -12 -204 -47 -294 -54 -41 -4 -109 -13 -150 -20 -41 -7 -104 -16
-138 -20 -35 -3 -76 -11 -90 -16 -15 -6 -54 -14 -87 -19 -115 -17 -235 -57
-370 -123 -41 -20 -105 -73 -111 -92 -3 -11 -12 -27 -18 -35 -43 -53 -91 -358
-65 -406 23 -43 188 -78 209 -44 5 8 6 41 3 75 -23 251 139 465 382 504 61 10
80 9 145 -8 161 -41 254 -119 316 -261 25 -60 28 -76 28 -195 l1 -130 1060 0
1060 0 -3 102 c-6 159 34 268 133 367 73 72 124 99 226 120 81 17 87 16 169
-2 141 -32 232 -100 299 -222 22 -40 51 -142 51 -178 0 -18 4 -41 9 -51 11
-20 6 -20 211 19 58 11 119 20 136 20 32 0 119 24 143 39 10 6 17 43 23 118
15 198 14 218 -14 252 -28 32 -53 128 -64 245 -8 78 -30 112 -79 121 -16 3
-109 10 -205 16 -173 10 -308 35 -355 66 -11 7 -29 13 -40 13 -11 0 -32 6 -47
14 -14 8 -43 19 -63 26 -20 7 -49 18 -63 26 -15 8 -34 14 -42 14 -9 0 -20 4
-25 9 -13 12 -240 87 -290 96 -22 3 -60 14 -85 22 -37 13 -104 17 -385 18
-187 2 -398 0 -470 -4z m425 -76 c10 -12 9 -27 -8 -78 -11 -34 -24 -79 -28
-100 -3 -20 -10 -40 -15 -42 -4 -3 -11 -26 -15 -50 -3 -25 -10 -48 -16 -51 -9
-6 -125 -16 -378 -34 -85 -6 -213 -15 -285 -21 -368 -28 -413 -30 -460 -22
-44 7 -50 12 -53 34 -2 21 4 31 35 50 21 13 45 26 53 30 8 4 40 23 70 43 95
63 276 148 405 191 154 50 237 61 526 63 129 2 159 -1 169 -13z m220 -2 c8 -4
49 -14 90 -23 88 -21 177 -46 205 -58 75 -34 134 -66 159 -86 33 -28 30 -49
-13 -90 -28 -27 -35 -28 -168 -37 -76 -4 -196 -13 -266 -18 -71 -5 -135 -7
-142 -5 -28 11 -28 46 1 179 28 127 34 144 52 148 18 4 56 0 82 -10z"/>
<path d="M751 780 c-105 -38 -185 -127 -214 -236 -21 -75 -21 -92 -1 -157 23
-78 44 -115 89 -159 57 -54 104 -77 182 -88 123 -17 222 17 301 106 84 94 102
195 63 340 -15 56 -111 156 -177 185 -71 31 -174 35 -243 9z"/>
<path d="M3737 776 c-76 -29 -149 -93 -183 -159 -24 -46 -27 -64 -28 -152 0
-95 2 -103 32 -155 55 -97 130 -152 229 -169 154 -28 306 49 369 184 34 75 34
201 1 272 -35 75 -48 92 -100 129 -106 76 -210 93 -320 50z"/>
</g>
</svg>
