<?xml version="1.0" standalone="no"?>
<!DOCTYPE svg PUBLIC "-//W3C//DTD SVG 20010904//EN"
 "http://www.w3.org/TR/2001/REC-SVG-20010904/DTD/svg10.dtd">
<svg version="1.0" xmlns="http://www.w3.org/2000/svg"
 width="598.000000pt" height="230.000000pt" viewBox="0 0 598.000000 230.000000"
 preserveAspectRatio="xMidYMid meet">

<g transform="translate(0.000000,230.000000) scale(0.100000,-0.100000)"
fill="#ffffffcc" stroke="none">
<path d="M3190 2070 c-322 -8 -683 -26 -770 -40 -255 -39 -654 -223 -1100
-506 -128 -81 -184 -104 -279 -115 -46 -5 -87 -12 -91 -14 -5 -3 -51 -9 -105
-15 -53 -5 -117 -16 -143 -24 -45 -13 -90 -25 -177 -47 -42 -11 -183 -78 -210
-101 -92 -76 -118 -111 -174 -238 -9 -19 -29 -49 -45 -67 -38 -42 -45 -111
-21 -203 10 -39 18 -110 19 -179 2 -88 6 -116 17 -122 29 -15 158 -31 269 -32
l115 -2 6 105 c13 209 79 333 244 458 21 16 102 52 155 69 211 68 508 -59 606
-259 56 -112 58 -121 64 -248 l5 -125 1220 0 1220 0 6 125 c4 96 11 137 28
179 82 201 287 345 491 345 74 0 201 -27 230 -49 8 -6 31 -18 50 -27 19 -9 54
-33 78 -53 44 -39 122 -136 122 -154 0 -5 7 -16 15 -24 22 -23 55 -164 55
-239 0 -47 4 -68 13 -69 49 -4 127 10 392 70 126 29 172 55 203 117 20 39 42
156 42 225 0 63 -4 76 -34 122 -18 29 -37 61 -40 73 -4 11 -2 92 4 180 11 172
3 252 -30 314 -11 19 -26 50 -35 68 -8 17 -19 32 -24 32 -4 0 -12 8 -17 19
-27 56 -249 286 -326 338 -21 14 -38 30 -38 34 0 5 -7 9 -15 9 -7 0 -18 7 -23
16 -13 23 -68 32 -237 38 -82 4 -175 8 -205 11 -102 8 -1233 12 -1530 5z m802
-102 c15 -12 39 -104 69 -268 6 -30 17 -78 25 -106 19 -69 18 -130 -2 -138 -9
-3 -50 -6 -92 -6 -42 0 -180 -7 -307 -15 -317 -19 -751 -30 -758 -19 -3 5 -9
122 -13 260 -5 183 -4 256 5 272 11 20 19 22 169 25 484 9 889 7 904 -5z m893
-4 c28 -3 69 -14 92 -24 59 -26 258 -226 268 -268 3 -17 11 -34 16 -37 27 -17
-10 -113 -52 -136 -11 -5 -153 -14 -322 -19 -166 -5 -363 -13 -438 -16 -130
-7 -137 -6 -158 15 -11 11 -21 32 -21 45 0 14 -4 27 -9 31 -5 3 -15 30 -21 61
-6 30 -18 67 -26 82 -8 15 -14 33 -14 41 0 8 -9 44 -21 80 -11 36 -25 81 -31
100 -19 61 -16 61 356 56 182 -3 354 -8 381 -11z m-2127 -37 c9 -10 9 -34 3
-88 -5 -41 -13 -152 -17 -246 -4 -101 -11 -179 -18 -188 -13 -19 -21 -19 -533
-41 -210 -9 -389 -14 -397 -11 -23 9 -23 257 0 292 14 21 165 114 254 157 109
51 169 77 200 87 19 6 58 17 85 26 28 9 118 20 200 26 83 5 157 11 165 13 18
3 43 -8 58 -27z m-1084 -382 c8 -21 -9 -147 -23 -174 -7 -11 -17 -21 -24 -22
-116 -10 -176 -2 -187 25 -12 33 4 51 108 120 103 69 116 75 126 51z"/>
<path d="M935 877 c-170 -60 -257 -149 -296 -302 -24 -96 -24 -114 -1 -197 36
-127 112 -219 231 -276 72 -35 81 -36 170 -35 90 1 115 7 200 47 14 6 50 35
82 64 127 117 163 286 97 464 -13 35 -96 148 -109 148 -3 0 -26 15 -50 33 -76
57 -239 84 -324 54z"/>
<path d="M4470 880 c-8 -5 -23 -10 -33 -10 -34 0 -123 -49 -168 -92 -99 -95
-133 -183 -127 -322 5 -119 42 -199 132 -283 85 -81 157 -108 286 -107 89 1
99 3 166 38 129 67 195 151 229 294 17 70 17 77 1 155 -35 162 -134 271 -290
318 -65 20 -171 25 -196 9z"/>
</g>
</svg>
