<?xml version="1.0" standalone="no"?>
<!DOCTYPE svg PUBLIC "-//W3C//DTD SVG 20010904//EN"
 "http://www.w3.org/TR/2001/REC-SVG-20010904/DTD/svg10.dtd">
<svg version="1.0" xmlns="http://www.w3.org/2000/svg"
 width="617.000000pt" height="212.000000pt" viewBox="0 0 617.000000 212.000000"
 preserveAspectRatio="xMidYMid meet">

<g transform="translate(0.000000,212.000000) scale(0.100000,-0.100000)"
fill="#ffffffcc" stroke="none">
<path d="M2510 1930 c-118 -27 -245 -81 -415 -179 -73 -41 -275 -173 -307
-200 -56 -46 -120 -91 -160 -110 -50 -24 -75 -26 -487 -51 -96 -6 -213 -17
-260 -26 -135 -23 -273 -54 -311 -69 -19 -8 -49 -17 -66 -20 -93 -18 -147
-125 -179 -354 -12 -84 -17 -97 -47 -128 l-33 -34 2 -100 c1 -82 5 -108 25
-147 l23 -47 68 -9 c61 -8 71 -7 95 11 25 18 28 28 33 105 11 159 88 298 221
397 120 89 264 125 421 103 210 -28 353 -147 452 -377 9 -22 19 -76 22 -120 4
-62 10 -85 26 -102 l20 -23 1161 0 1161 0 14 21 c7 12 19 68 27 125 12 82 22
116 52 172 110 206 284 312 514 312 207 0 408 -130 498 -323 38 -82 60 -168
60 -238 0 -67 8 -69 309 -69 255 0 358 8 410 33 32 16 71 130 71 209 0 54 -2
59 -30 73 -16 8 -35 15 -43 15 -7 0 -23 10 -35 23 -22 23 -22 30 -22 306 0
175 -4 290 -10 302 -10 19 -31 19 -934 19 -727 0 -926 3 -934 13 -5 6 -21 82
-35 167 -33 199 -53 255 -101 295 l-38 30 -601 1 c-331 1 -618 -2 -637 -6z
m1049 -93 c40 -19 62 -98 68 -249 6 -142 2 -173 -28 -189 -13 -7 -86 -11 -197
-10 -156 0 -178 2 -189 18 -10 12 -13 72 -13 219 0 187 2 204 19 216 24 17
303 13 340 -5z m-595 -3 c9 -25 7 -432 -3 -438 -17 -11 -1104 -7 -1114 3 -7 7
-7 17 -1 29 9 19 167 152 180 152 4 0 16 7 26 17 10 9 27 21 37 27 11 6 57 36
103 67 46 31 112 71 148 89 36 19 74 38 85 44 35 18 105 23 321 25 185 1 213
-1 218 -15z"/>
<path d="M910 887 c-80 -32 -154 -80 -181 -119 -13 -18 -27 -34 -31 -36 -4 -2
-8 -9 -8 -17 0 -7 -6 -18 -14 -24 -8 -7 -24 -54 -36 -106 l-23 -94 20 -84 c26
-108 89 -206 169 -263 73 -52 133 -69 244 -69 88 0 113 4 152 23 26 12 52 22
57 22 19 0 138 127 163 175 38 73 55 186 39 271 -24 132 -111 250 -221 300
-91 41 -102 44 -187 43 -66 0 -102 -6 -143 -22z"/>
<path d="M4458 900 c-63 -19 -156 -75 -194 -117 -82 -89 -133 -232 -119 -332
13 -93 60 -191 122 -256 35 -37 99 -80 133 -90 14 -4 31 -13 39 -19 9 -7 59
-11 130 -11 113 0 118 1 181 35 164 88 253 250 235 429 -16 161 -116 286 -279
349 -61 23 -190 30 -248 12z"/>
</g>
</svg>
