<?xml version="1.0" standalone="no"?>
<!DOCTYPE svg PUBLIC "-//W3C//DTD SVG 20010904//EN"
 "http://www.w3.org/TR/2001/REC-SVG-20010904/DTD/svg10.dtd">
<svg version="1.0" xmlns="http://www.w3.org/2000/svg"
 width="573.000000pt" height="241.000000pt" viewBox="0 0 573.000000 241.000000"
 preserveAspectRatio="xMidYMid meet">

<g transform="translate(0.000000,241.000000) scale(0.100000,-0.100000)"
fill="#000000" stroke="none">
<path d="M3030 2069 c-173 -4 -251 -10 -295 -23 -60 -16 -117 -38 -145 -56 -8
-6 -26 -15 -40 -20 -14 -6 -32 -14 -40 -20 -13 -8 -40 -25 -158 -95 -24 -14
-111 -74 -217 -150 -291 -207 -270 -198 -516 -215 -142 -9 -297 -27 -459 -51
-166 -25 -240 -38 -248 -43 -5 -3 -40 -12 -79 -20 -214 -44 -248 -66 -344
-223 -22 -37 -56 -87 -75 -111 -34 -43 -34 -45 -33 -140 2 -194 52 -412 97
-426 25 -8 141 -10 148 -4 3 4 10 44 14 90 12 106 24 163 47 213 21 47 85 138
123 175 67 65 183 126 268 141 84 15 260 7 299 -14 15 -8 53 -27 83 -41 96
-44 181 -137 240 -261 34 -72 41 -97 46 -172 3 -48 7 -98 10 -111 l4 -22 1090
0 1090 0 0 79 c0 209 120 401 312 498 167 85 391 72 548 -32 148 -98 250 -276
250 -435 0 -85 4 -88 98 -71 37 7 110 18 163 26 104 16 156 33 180 62 23 27
55 109 69 177 11 52 10 65 -11 128 -21 66 -22 81 -16 276 4 125 2 224 -4 251
-8 37 -37 86 -67 113 -4 3 -29 27 -56 53 -27 25 -83 76 -124 113 -41 37 -82
74 -91 82 -36 34 -258 208 -279 219 -30 16 -77 20 -362 31 -129 5 -309 14
-400 19 -206 13 -808 18 -1120 10z m253 -110 c8 -12 4 -37 -12 -90 -13 -41
-31 -101 -41 -134 -9 -33 -27 -94 -39 -135 -12 -41 -26 -82 -30 -90 -7 -12
-45 -16 -202 -22 -107 -4 -261 -12 -344 -19 -213 -16 -547 -17 -552 -2 -2 6
33 41 79 77 46 36 90 72 98 78 158 134 370 276 480 323 53 22 178 32 399 31
131 -1 155 -3 164 -17z m846 1 c11 -6 59 -89 109 -193 106 -214 109 -222 85
-231 -9 -4 -204 -11 -433 -17 -228 -5 -422 -10 -430 -11 -69 -6 -73 11 -50
188 11 82 20 172 20 201 0 88 -9 86 362 79 191 -3 326 -9 337 -16z m461 -15
c52 -3 110 -8 128 -11 40 -6 125 -82 256 -229 50 -55 94 -101 98 -103 11 -5
10 -39 -1 -46 -15 -10 -101 -15 -341 -21 -184 -5 -239 -3 -252 7 -16 12 -98
160 -98 177 0 4 -22 48 -50 97 -47 84 -59 122 -43 137 7 7 126 4 303 -8z"/>
<path d="M1066 950 c-33 -11 -67 -27 -76 -35 -9 -8 -21 -15 -27 -15 -19 0
-122 -119 -151 -173 -25 -49 -27 -59 -27 -182 l1 -130 39 -66 c43 -71 128
-152 185 -176 19 -7 46 -19 59 -26 14 -7 67 -12 130 -12 101 0 109 2 175 34
76 38 151 105 184 164 41 72 65 173 59 247 -6 72 -48 181 -86 221 -12 13 -21
26 -21 29 0 14 -118 99 -146 106 -16 4 -35 12 -43 17 -7 6 -54 12 -105 14 -70
2 -104 -2 -150 -17z"/>
<path d="M4365 951 c-181 -67 -294 -223 -294 -406 -1 -96 62 -238 135 -307 16
-14 63 -44 104 -65 74 -37 77 -38 185 -37 96 1 117 4 166 27 125 57 214 172
243 311 14 69 14 83 0 153 -16 80 -66 178 -108 214 -12 10 -34 29 -50 43 -17
14 -46 33 -65 42 -20 9 -45 22 -56 27 -11 6 -63 12 -115 14 -73 2 -107 -2
-145 -16z"/>
</g>
</svg>
