<?xml version="1.0" standalone="no"?>
<!DOCTYPE svg PUBLIC "-//W3C//DTD SVG 20010904//EN"
 "http://www.w3.org/TR/2001/REC-SVG-20010904/DTD/svg10.dtd">
<svg version="1.0" xmlns="http://www.w3.org/2000/svg"
 width="747.000000pt" height="305.000000pt" viewBox="0 0 747.000000 305.000000"
 preserveAspectRatio="xMidYMid meet">

<g transform="translate(0.000000,305.000000) scale(0.100000,-0.100000)"
fill="#ffffffcc" stroke="none">
<path d="M2495 2780 c-33 -3 -69 -11 -80 -17 -11 -6 -36 -13 -55 -16 -41 -6
-188 -73 -243 -111 -21 -14 -41 -26 -46 -26 -4 0 -32 -19 -63 -42 -31 -24 -66
-50 -78 -58 -13 -8 -37 -26 -54 -40 -17 -14 -39 -32 -50 -40 -72 -57 -256
-217 -331 -289 -111 -106 -397 -393 -445 -447 -48 -53 -133 -124 -149 -124 -7
0 -25 -6 -39 -14 -15 -8 -54 -24 -87 -36 -33 -13 -78 -31 -101 -41 -23 -11
-46 -19 -52 -19 -6 0 -28 -9 -49 -19 -21 -10 -87 -43 -146 -71 -60 -29 -133
-73 -162 -96 -76 -62 -94 -106 -106 -256 -10 -120 -28 -208 -49 -233 -6 -8
-11 -70 -12 -149 0 -120 2 -139 18 -157 26 -29 102 -66 150 -74 21 -3 58 -11
82 -17 27 -7 47 -7 53 -1 5 5 12 40 15 78 7 84 26 150 68 229 34 64 133 170
181 192 16 7 37 18 45 23 36 22 100 42 164 51 228 31 446 -88 550 -299 32 -65
60 -192 53 -243 -3 -24 0 -41 9 -49 10 -8 330 -11 1201 -10 1603 2 2456 10
2466 25 4 6 6 22 3 36 -10 58 21 194 61 265 52 93 153 191 233 226 14 6 39 18
55 27 21 11 66 17 151 20 107 4 130 2 190 -18 38 -13 80 -31 93 -41 13 -11 29
-19 35 -19 28 0 144 -131 179 -202 37 -73 67 -191 67 -259 0 -24 5 -39 16 -43
23 -9 168 -7 249 4 39 5 122 16 185 24 118 15 163 23 310 57 215 50 295 79
305 108 3 9 7 41 9 71 3 30 9 86 15 124 8 55 7 76 -5 104 -11 28 -14 101 -14
376 -1 187 -5 386 -10 441 -30 333 -40 430 -45 444 -2 9 -11 59 -19 111 -42
267 -93 418 -171 505 l-36 40 -2227 1 c-1225 1 -2254 -2 -2287 -6z m-145 -482
c17 -19 20 -35 20 -117 0 -102 -37 -334 -65 -410 -32 -87 -93 -143 -171 -156
-22 -4 -61 -13 -89 -20 -89 -25 -233 -52 -455 -85 -41 -6 -112 -18 -157 -26
-127 -22 -146 -20 -182 21 -29 33 -31 41 -31 109 0 70 2 75 36 115 43 49 271
272 369 362 39 35 89 81 113 103 62 58 108 81 192 99 105 23 119 24 267 26
124 1 133 0 153 -21z"/>
<path d="M795 814 c-165 -72 -255 -208 -255 -385 0 -157 84 -289 230 -361 61
-30 72 -32 175 -33 100 0 115 2 163 27 65 33 152 98 152 114 0 6 7 17 15 24 9
7 24 32 35 54 96 213 19 440 -184 547 -55 29 -71 32 -166 36 -96 3 -110 1
-165 -23z"/>
<path d="M5508 802 c-105 -54 -172 -128 -212 -234 -22 -60 -18 -221 8 -286 33
-87 113 -168 216 -223 40 -21 58 -23 160 -23 99 0 122 3 168 23 28 13 52 27
52 31 0 4 12 13 28 19 32 14 88 84 128 161 26 50 28 63 29 165 0 106 -1 113
-35 178 -40 78 -72 114 -148 164 -77 51 -115 62 -223 63 -91 0 -99 -2 -171
-38z"/>
</g>
</svg>
